<svg width="120" height="120" viewBox="0 0 120 120" fill="none" xmlns="http://www.w3.org/2000/svg">
<g clip-path="url(#clip0_401_348)">
<path d="M94 0H26C11.6406 0 0 11.6406 0 26V94C0 108.359 11.6406 120 26 120H94C108.359 120 120 108.359 120 94V26C120 11.6406 108.359 0 94 0Z" fill="url(#paint0_linear_401_348)"/>
<path d="M18.49 73.7299V45.4399C18.49 37.6399 22.71 33.3799 30.59 33.3799H65.16C73 33.3799 77.26 37.6399 77.26 45.4399V73.7299C77.26 81.5299 73 85.7899 65.16 85.7899H30.59C22.75 85.7899 18.49 81.5299 18.49 73.7299ZM79.6 51.1699L94.8 38.7799C95.8591 37.7774 97.2349 37.1762 98.69 37.0799C100.76 37.0799 102.16 38.5199 102.16 41.0799V79.0799C102.16 81.6699 100.76 83.0799 98.69 83.0799C97.2316 82.9972 95.8513 82.394 94.8 81.3799L79.6 68.8799V51.1699Z" fill="#FEFEFE"/>
</g>
<defs>
<linearGradient id="paint0_linear_401_348" x1="60" y1="0" x2="60" y2="120" gradientUnits="userSpaceOnUse">
<stop stop-color="#5BF776"/>
<stop offset="1" stop-color="#0DBC29"/>
</linearGradient>
<clipPath id="clip0_401_348">
<rect width="120" height="120" fill="white"/>
</clipPath>
</defs>
</svg>
