<svg width="120" height="120" viewBox="0 0 120 120" fill="none" xmlns="http://www.w3.org/2000/svg">
<g clip-path="url(#clip0_401_1319)">
<path d="M26.0001 5.17919e-05H94.0001C97.4163 -0.0067736 100.8 0.661078 103.958 1.96528C107.115 3.26949 109.984 5.18437 112.4 7.60005C114.816 10.0157 116.731 12.8847 118.035 16.0422C119.339 19.1998 120.007 22.5838 120 26.0001V94.0001C120.007 97.4163 119.339 100.8 118.035 103.958C116.731 107.115 114.816 109.984 112.4 112.4C109.984 114.816 107.115 116.731 103.958 118.035C100.8 119.339 97.4163 120.007 94.0001 120H26.0001C22.5838 120.007 19.1998 119.339 16.0422 118.035C12.8847 116.731 10.0157 114.816 7.60005 112.4C5.18437 109.984 3.26949 107.115 1.96528 103.958C0.661078 100.8 -0.0067736 97.4163 5.17919e-05 94.0001V26.0001C0.00323174 19.1054 2.74353 12.494 7.61879 7.61879C12.494 2.74353 19.1054 0.00323174 26.0001 5.17919e-05Z" fill="white"/>
<path fill-rule="evenodd" clip-rule="evenodd" d="M25.7 21.9999H41.1C41.7328 22.0193 42.337 22.2681 42.8 22.6999L97.3 76.4999C97.5253 76.7214 97.7035 76.9862 97.8238 77.2784C97.9441 77.5705 98.004 77.884 98 78.1999V94.2999C98.0011 94.7861 97.9062 95.2678 97.7207 95.7172C97.5351 96.1666 97.2626 96.575 96.9188 96.9188C96.575 97.2626 96.1667 97.5351 95.7173 97.7206C95.2679 97.9061 94.7862 98.0011 94.3 97.9999H79C78.3672 97.9806 77.763 97.7318 77.3 97.2999L22.8 43.4999C22.5747 43.2784 22.3965 43.0137 22.2762 42.7215C22.1559 42.4293 22.096 42.1159 22.1 41.7999V25.6999C22.0793 25.217 22.1574 24.7349 22.3297 24.2832C22.502 23.8315 22.7647 23.4198 23.1019 23.0734C23.439 22.7269 23.8433 22.4529 24.2901 22.2684C24.7369 22.0838 25.2167 21.9924 25.7 21.9999ZM63.7 21.9999H94.3C94.7862 21.9988 95.2679 22.0937 95.7173 22.2793C96.1667 22.4648 96.575 22.7373 96.9188 23.0811C97.2626 23.4249 97.5351 23.8333 97.7207 24.2827C97.9062 24.7321 98.0011 25.2137 98 25.6999V57.4999C94.5122 49.932 89.7799 43.0026 84 36.9999C78.1114 30.9095 71.2512 25.8404 63.7 21.9999ZM56.3 97.9999H25.7C25.2138 98.0011 24.7322 97.9061 24.2827 97.7206C23.8333 97.5351 23.425 97.2626 23.0812 96.9188C22.7374 96.575 22.4649 96.1666 22.2794 95.7172C22.0938 95.2678 21.9989 94.7861 22 94.2999V62.4999C25.4764 70.0743 30.21 77.0056 36 82.9999C41.9348 89.0375 48.7859 94.0998 56.3 97.9999Z" fill="url(#paint0_linear_401_1319)"/>
</g>
<defs>
<linearGradient id="paint0_linear_401_1319" x1="60.003" y1="98.0139" x2="60.003" y2="22.0139" gradientUnits="userSpaceOnUse">
<stop stop-color="#FD355A"/>
<stop offset="1" stop-color="#FD5163"/>
</linearGradient>
<clipPath id="clip0_401_1319">
<rect width="120" height="120" fill="white"/>
</clipPath>
</defs>
</svg>
