<svg width="120" height="120" viewBox="0 0 120 120" fill="none" xmlns="http://www.w3.org/2000/svg">
<g clip-path="url(#clip0_401_419)">
<path fill-rule="evenodd" clip-rule="evenodd" d="M94.0001 120H26.0001C22.5838 120.007 19.1998 119.339 16.0422 118.035C12.8847 116.731 10.0157 114.816 7.60005 112.4C5.18437 109.984 3.26948 107.115 1.96528 103.958C0.661075 100.8 -0.0067749 97.4163 5.1812e-05 94.0001V26.0001C-0.0067749 22.5838 0.661075 19.1998 1.96528 16.0422C3.26948 12.8847 5.18437 10.0157 7.60005 7.60005C10.0157 5.18437 12.8847 3.26948 16.0422 1.96528C19.1998 0.661075 22.5838 -0.0067749 26.0001 5.1812e-05H94.0001C97.4163 -0.0067749 100.8 0.661075 103.958 1.96528C107.115 3.26948 109.984 5.18437 112.4 7.60005C114.816 10.0157 116.731 12.8847 118.035 16.0422C119.339 19.1998 120.007 22.5838 120 26.0001V94.0001C120.007 97.4163 119.339 100.8 118.035 103.958C116.731 107.115 114.816 109.984 112.4 112.4C109.984 114.816 107.115 116.731 103.958 118.035C100.8 119.339 97.4163 120.007 94.0001 120Z" fill="url(#paint0_linear_401_419)"/>
<path d="M74.9 79.7001L75.4 75.3001C75.5 74.5367 75.5 73.7635 75.4 73.0001C78.8541 69.8863 81.2832 65.7986 82.3669 61.2762C83.4505 56.7538 83.1378 52.0091 81.4699 47.668C79.8021 43.327 76.8575 39.5935 73.0246 36.96C69.1916 34.3265 64.6504 32.9168 60 32.9168C55.3495 32.9168 50.8083 34.3265 46.9754 36.96C43.1425 39.5935 40.1979 43.327 38.5301 47.668C36.8622 52.0091 36.5495 56.7538 37.6331 61.2762C38.7168 65.7986 41.1459 69.8863 44.6 73.0001C44.5499 73.766 44.5499 74.5343 44.6 75.3001L45.1 79.7001C39.9575 76.468 36.0055 71.6513 33.84 65.9766C31.6745 60.3019 31.413 54.077 33.0948 48.2406C34.7766 42.4043 38.3107 37.2731 43.1638 33.6209C48.017 29.9688 53.9262 27.9938 60 27.9938C66.0738 27.9938 71.983 29.9688 76.8361 33.6209C81.6893 37.2731 85.2233 42.4043 86.9052 48.2406C88.587 54.077 88.3254 60.3019 86.1599 65.9766C83.9944 71.6513 80.0424 76.468 74.9 79.7001ZM73.2 94.9001L73.8 89.4001C81.8202 86.2224 88.4834 80.3508 92.6448 72.7941C96.8063 65.2374 98.2062 56.4673 96.604 47.9906C95.0018 39.5139 90.4975 31.8597 83.8651 26.3432C77.2327 20.8266 68.8861 17.792 60.2594 17.7608C51.6326 17.7295 43.2643 20.7035 36.5921 26.1719C29.9198 31.6403 25.3602 39.2616 23.6967 47.7264C22.0331 56.1913 23.3694 64.9713 27.476 72.558C31.5825 80.1447 38.203 86.0644 46.2 89.3001L46.8 94.8001C37.379 91.6291 29.3944 85.2082 24.2757 76.6871C19.157 68.166 17.2385 58.1011 18.8638 48.2945C20.489 38.488 25.5518 29.5801 33.1457 23.1658C40.7396 16.7516 50.3687 13.2498 60.3089 13.2874C70.2492 13.3251 79.8515 16.8997 87.3966 23.3713C94.9417 29.8429 99.9368 38.7889 101.488 48.6075C103.039 58.4261 101.044 68.4762 95.8608 76.9582C90.6777 85.4403 82.6447 91.8005 73.2 94.9001Z" fill="white"/>
<path d="M60 62C65.5228 62 70 57.5228 70 52C70 46.4772 65.5228 42 60 42C54.4772 42 50 46.4772 50 52C50 57.5228 54.4772 62 60 62Z" fill="white"/>
<path d="M55.9001 66.5001L54.5001 67.0001C52.9437 67.5868 51.6222 68.6669 50.7374 70.0754C49.8526 71.4839 49.4532 73.1432 49.6001 74.8001L52.3001 99.1001C52.5316 100.987 53.4395 102.726 54.8554 103.995C56.2712 105.264 58.0991 105.976 60.0001 106C61.9103 106.008 63.7556 105.307 65.1783 104.032C66.6009 102.757 67.4996 101 67.7001 99.1001L70.3001 74.8001C70.4891 73.1369 70.1071 71.4589 69.2167 70.0416C68.3263 68.6242 66.9804 67.5517 65.4001 67.0001L64.1001 66.5001C61.4582 65.5 58.542 65.5 55.9001 66.5001Z" fill="white"/>
</g>
<defs>
<linearGradient id="paint0_linear_401_419" x1="60.0001" y1="-0.129948" x2="60.0001" y2="119.87" gradientUnits="userSpaceOnUse">
<stop stop-color="#C873F5"/>
<stop offset="1" stop-color="#7B33BB"/>
</linearGradient>
<clipPath id="clip0_401_419">
<rect width="120" height="120" fill="white"/>
</clipPath>
</defs>
</svg>
