<svg width="120" height="120" viewBox="0 0 120 120" fill="none" xmlns="http://www.w3.org/2000/svg">
<path fill-rule="evenodd" clip-rule="evenodd" d="M91.4062 0C108.75 0 120 11.25 120 28.5938V91.4062C120 108.75 108.75 120 91.4062 120H28.5938C11.25 120 0 108.75 0 91.4062V28.5938C0 11.25 11.25 0 28.5938 0H91.4062Z" fill="#FF4500"/>
<path fill-rule="evenodd" clip-rule="evenodd" d="M61.5265 46.0373C71.3206 46.3989 80.1174 49.3661 86.501 53.9574C88.1583 52.1357 90.5002 51 93.0962 51C98.1198 51 102.192 55.2533 102.192 60.5C102.192 64.376 99.9698 67.7098 96.7831 69.1872C96.9265 70.1112 97 71.0496 97 72C97 86.3594 80.2107 98 59.5 98C38.7893 98 22 86.3594 22 72C22 71.0204 22.0781 70.0534 22.2303 69.1019C19.1397 67.5842 17 64.303 17 60.5C17 55.2533 21.0725 51 26.0962 51C28.6524 51 30.9624 52.1013 32.6149 53.8744C38.9666 49.3462 47.6775 46.4172 57.3718 46.0412L62.6024 21.5015L79.5041 25.3867C80.5396 22.8151 83.0578 21 86 21C89.866 21 93 24.134 93 28C93 31.866 89.866 35 86 35C82.3786 35 79.3994 32.25 79.037 28.7243L65.7237 25.6446L61.5265 46.0373ZM44.1984 85.4654C44.8984 86.0894 45.7849 86.6973 46.8742 87.252C49.8387 88.7618 53.816 89.6477 58.9343 89.6477C64.0274 89.6477 68.1885 88.7722 71.4802 87.2943C72.6665 86.7617 73.6631 86.183 74.4789 85.5942C75.0016 85.2168 75.3639 84.9003 75.5762 84.6803C76.3429 83.8852 76.32 82.6191 75.5249 81.8523C74.7299 81.0855 73.4637 81.1085 72.697 81.9035C72.7033 81.897 72.6777 81.9214 72.6189 81.9728C72.4946 82.0814 72.3346 82.2087 72.1377 82.3508C71.5392 82.7829 70.7777 83.2251 69.8418 83.6453C67.07 84.8898 63.4675 85.6477 58.9343 85.6477C54.4262 85.6477 51.0705 84.9002 48.6895 83.6876C47.3857 83.0236 46.7169 82.4274 46.5185 82.1442C45.8846 81.2396 44.6375 81.0201 43.7329 81.654C42.8283 82.2879 42.6088 83.535 43.2427 84.4396C43.425 84.6998 43.7372 85.0541 44.1984 85.4654ZM44.6944 74C48.5604 74 51.6944 70.866 51.6944 67C51.6944 63.134 48.5604 60 44.6944 60C40.8284 60 37.6944 63.134 37.6944 67C37.6944 70.866 40.8284 74 44.6944 74ZM74 74C77.866 74 81 70.866 81 67C81 63.134 77.866 60 74 60C70.134 60 67 63.134 67 67C67 70.866 70.134 74 74 74Z" fill="white"/>
</svg>
